<mxfile host="Electron" agent="Mozilla/5.0 (Windows NT 10.0; Win64; x64) AppleWebKit/537.36 (KHTML, like Gecko) draw.io/24.7.8 Chrome/128.0.6613.36 Electron/32.0.1 Safari/537.36" version="24.7.8">
  <diagram name="Admin Use Case Diagram" id="1quYvFC4Hig-9zOD-AdR">
    <mxGraphModel dx="2333" dy="1380" grid="1" gridSize="10" guides="1" tooltips="1" connect="1" arrows="1" fold="1" page="1" pageScale="1" pageWidth="1169" pageHeight="827" math="0" shadow="0">
      <root>
        <mxCell id="0" />
        <mxCell id="1" parent="0" />
        <mxCell id="nLY96N5924vSX7NNvHFo-1" value="Admin" style="shape=umlActor;verticalLabelPosition=bottom;verticalAlign=top;" vertex="1" parent="1">
          <mxGeometry x="223" y="280" width="70" height="100" as="geometry" />
        </mxCell>
        <mxCell id="nLY96N5924vSX7NNvHFo-2" value="Login" style="ellipse;whiteSpace=wrap;html=1;aspect=fixed;" vertex="1" parent="1">
          <mxGeometry x="525" y="110" width="120" height="60" as="geometry" />
        </mxCell>
        <mxCell id="nLY96N5924vSX7NNvHFo-3" style="endArrow=none;" edge="1" parent="1" target="nLY96N5924vSX7NNvHFo-2">
          <mxGeometry relative="1" as="geometry">
            <mxPoint x="300" y="340" as="sourcePoint" />
          </mxGeometry>
        </mxCell>
        <mxCell id="nLY96N5924vSX7NNvHFo-4" value="Manage Users" style="ellipse;whiteSpace=wrap;html=1;aspect=fixed;" vertex="1" parent="1">
          <mxGeometry x="525" y="190" width="120" height="60" as="geometry" />
        </mxCell>
        <mxCell id="nLY96N5924vSX7NNvHFo-5" style="endArrow=none;" edge="1" parent="1" target="nLY96N5924vSX7NNvHFo-4">
          <mxGeometry relative="1" as="geometry">
            <mxPoint x="300" y="340" as="sourcePoint" />
          </mxGeometry>
        </mxCell>
        <mxCell id="nLY96N5924vSX7NNvHFo-6" value="Add/Edit/Delete Student" style="ellipse;whiteSpace=wrap;html=1;aspect=fixed;" vertex="1" parent="1">
          <mxGeometry x="760" y="100" width="160" height="60" as="geometry" />
        </mxCell>
        <mxCell id="nLY96N5924vSX7NNvHFo-7" style="endArrow=none;" edge="1" parent="1" source="nLY96N5924vSX7NNvHFo-4" target="nLY96N5924vSX7NNvHFo-6">
          <mxGeometry relative="1" as="geometry" />
        </mxCell>
        <mxCell id="nLY96N5924vSX7NNvHFo-8" value="Add/Edit/Delete Teacher" style="ellipse;whiteSpace=wrap;html=1;aspect=fixed;" vertex="1" parent="1">
          <mxGeometry x="760" y="180" width="160" height="60" as="geometry" />
        </mxCell>
        <mxCell id="nLY96N5924vSX7NNvHFo-9" style="endArrow=none;" edge="1" parent="1" source="nLY96N5924vSX7NNvHFo-4" target="nLY96N5924vSX7NNvHFo-8">
          <mxGeometry relative="1" as="geometry" />
        </mxCell>
        <mxCell id="nLY96N5924vSX7NNvHFo-10" value="Reset Passwords" style="ellipse;whiteSpace=wrap;html=1;aspect=fixed;" vertex="1" parent="1">
          <mxGeometry x="760" y="260" width="160" height="60" as="geometry" />
        </mxCell>
        <mxCell id="nLY96N5924vSX7NNvHFo-11" style="endArrow=none;" edge="1" parent="1" source="nLY96N5924vSX7NNvHFo-4" target="nLY96N5924vSX7NNvHFo-10">
          <mxGeometry relative="1" as="geometry" />
        </mxCell>
        <mxCell id="nLY96N5924vSX7NNvHFo-12" value="Manage Classes" style="ellipse;whiteSpace=wrap;html=1;aspect=fixed;" vertex="1" parent="1">
          <mxGeometry x="525" y="300" width="120" height="60" as="geometry" />
        </mxCell>
        <mxCell id="nLY96N5924vSX7NNvHFo-13" style="endArrow=none;" edge="1" parent="1" target="nLY96N5924vSX7NNvHFo-12">
          <mxGeometry relative="1" as="geometry">
            <mxPoint x="300" y="340" as="sourcePoint" />
          </mxGeometry>
        </mxCell>
        <mxCell id="nLY96N5924vSX7NNvHFo-14" value="Manage Subjects" style="ellipse;whiteSpace=wrap;html=1;aspect=fixed;" vertex="1" parent="1">
          <mxGeometry x="525" y="384" width="120" height="60" as="geometry" />
        </mxCell>
        <mxCell id="nLY96N5924vSX7NNvHFo-15" style="endArrow=none;" edge="1" parent="1" target="nLY96N5924vSX7NNvHFo-14">
          <mxGeometry relative="1" as="geometry">
            <mxPoint x="300" y="340" as="sourcePoint" />
            <Array as="points" />
          </mxGeometry>
        </mxCell>
        <mxCell id="nLY96N5924vSX7NNvHFo-16" value="Assign Teachers to Classes" style="ellipse;whiteSpace=wrap;html=1;aspect=fixed;" vertex="1" parent="1">
          <mxGeometry x="495" y="480" width="180" height="60" as="geometry" />
        </mxCell>
        <mxCell id="nLY96N5924vSX7NNvHFo-17" style="endArrow=none;" edge="1" parent="1" target="nLY96N5924vSX7NNvHFo-16">
          <mxGeometry relative="1" as="geometry">
            <mxPoint x="300" y="340" as="sourcePoint" />
          </mxGeometry>
        </mxCell>
        <mxCell id="nLY96N5924vSX7NNvHFo-18" value="View Reports" style="ellipse;whiteSpace=wrap;html=1;aspect=fixed;" vertex="1" parent="1">
          <mxGeometry x="510" y="580" width="120" height="60" as="geometry" />
        </mxCell>
        <mxCell id="nLY96N5924vSX7NNvHFo-19" style="endArrow=none;" edge="1" parent="1" target="nLY96N5924vSX7NNvHFo-18">
          <mxGeometry relative="1" as="geometry">
            <mxPoint x="300" y="340" as="sourcePoint" />
          </mxGeometry>
        </mxCell>
        <mxCell id="nLY96N5924vSX7NNvHFo-20" value="Attendance Report" style="ellipse;whiteSpace=wrap;html=1;aspect=fixed;" vertex="1" parent="1">
          <mxGeometry x="690" y="550" width="140" height="60" as="geometry" />
        </mxCell>
        <mxCell id="nLY96N5924vSX7NNvHFo-21" style="endArrow=none;" edge="1" parent="1" source="nLY96N5924vSX7NNvHFo-18" target="nLY96N5924vSX7NNvHFo-20">
          <mxGeometry relative="1" as="geometry" />
        </mxCell>
        <mxCell id="nLY96N5924vSX7NNvHFo-22" value="Result Report" style="ellipse;whiteSpace=wrap;html=1;aspect=fixed;" vertex="1" parent="1">
          <mxGeometry x="675" y="640" width="140" height="60" as="geometry" />
        </mxCell>
        <mxCell id="nLY96N5924vSX7NNvHFo-23" style="endArrow=none;" edge="1" parent="1" source="nLY96N5924vSX7NNvHFo-18" target="nLY96N5924vSX7NNvHFo-22">
          <mxGeometry relative="1" as="geometry" />
        </mxCell>
        <mxCell id="nLY96N5924vSX7NNvHFo-24" value="Send Messages" style="ellipse;whiteSpace=wrap;html=1;aspect=fixed;" vertex="1" parent="1">
          <mxGeometry x="500" y="670" width="120" height="60" as="geometry" />
        </mxCell>
        <mxCell id="nLY96N5924vSX7NNvHFo-25" style="endArrow=none;" edge="1" parent="1" target="nLY96N5924vSX7NNvHFo-24">
          <mxGeometry relative="1" as="geometry">
            <mxPoint x="300" y="340" as="sourcePoint" />
          </mxGeometry>
        </mxCell>
        <mxCell id="nLY96N5924vSX7NNvHFo-28" value="&lt;font style=&quot;font-size: 24px;&quot;&gt;School Management System&lt;/font&gt;" style="text;html=1;align=center;verticalAlign=middle;resizable=0;points=[];autosize=1;strokeColor=none;fillColor=none;" vertex="1" parent="1">
          <mxGeometry x="510" y="35" width="330" height="40" as="geometry" />
        </mxCell>
        <mxCell id="nLY96N5924vSX7NNvHFo-29" value="" style="endArrow=none;html=1;rounded=0;" edge="1" parent="1">
          <mxGeometry width="50" height="50" relative="1" as="geometry">
            <mxPoint x="360" y="20" as="sourcePoint" />
            <mxPoint x="1000" y="20" as="targetPoint" />
          </mxGeometry>
        </mxCell>
        <mxCell id="nLY96N5924vSX7NNvHFo-30" value="" style="endArrow=none;html=1;rounded=0;" edge="1" parent="1">
          <mxGeometry width="50" height="50" relative="1" as="geometry">
            <mxPoint x="360" y="20" as="sourcePoint" />
            <mxPoint x="360" y="780" as="targetPoint" />
          </mxGeometry>
        </mxCell>
        <mxCell id="nLY96N5924vSX7NNvHFo-31" value="" style="endArrow=none;html=1;rounded=0;" edge="1" parent="1">
          <mxGeometry width="50" height="50" relative="1" as="geometry">
            <mxPoint x="360" y="780" as="sourcePoint" />
            <mxPoint x="1000" y="780" as="targetPoint" />
          </mxGeometry>
        </mxCell>
        <mxCell id="nLY96N5924vSX7NNvHFo-32" value="" style="endArrow=none;html=1;rounded=0;" edge="1" parent="1">
          <mxGeometry width="50" height="50" relative="1" as="geometry">
            <mxPoint x="1000" y="20" as="sourcePoint" />
            <mxPoint x="1000" y="780" as="targetPoint" />
          </mxGeometry>
        </mxCell>
      </root>
    </mxGraphModel>
  </diagram>
</mxfile>
